{"title":"The.Taint.2011.DVDRIP.XVID.AC3-XtremE","uid":6404625,"size":1094459489,"categoryP":"video","categoryS":"movies","magnet":"?xt=urn:btih:d92c708f13b4f993428fb5fba411962ae6354615&amp;dn=The.Taint.2011.DVDRIP.XVID.AC3-XtremE&amp;tr=udp%3A%2F%2Ftracker.openbittorrent.com%3A80&amp;tr=udp%3A%2F%2Fopen.demonii.com%3A1337&amp;tr=udp%3A%2F%2Ftracker.coppersurfer.tk%3A6969&amp;tr=udp%3A%2F%2Fexodus.desync.com%3A6969","seeders":0,"leechers":1,"uploader":"sceneline","files":5,"time":1305771759,"description":"- &lt;a href=&quot;\nhttp://www.Speed.Cd&quot; rel=&quot;nofollow&quot; target=&quot;_NEW&quot;&gt;\nhttp://www.Speed.Cd&lt;/a&gt; \n       &lt;a href=&quot;\nhttp://www.Speed.Cd&quot; rel=&quot;nofollow&quot; target=&quot;_NEW&quot;&gt;\nhttp://www.Speed.Cd&lt;/a&gt;       the fast  and The Hottest Private Tracker on the net\n\nWant Free invite? submit your emil to signUp / Talk to Us\n\nPlease Seed back to make the speed Faster!!!\n\nand don't forget to visit      ...... http://www.Speed.Cd..........\n-The.Taint.2011.DVDRiP.XVID.AC3-XtremE\n\n[img]http://img101.imageshack.us/img101/7681/thetaintposter.jpg[/img]\n\nIMDB Link\nhttp://www.imdb.com/title/tt1667133/\n\n\nTrailer\n\nDescription:\n\nThe water is tainted. The Taint poisons the minds of men. It turns them into raging misogynists: monsters who want nothing more than to crush women's heads with rocks (or other objects). When society is transformed into a land of sadistic violence and horrible brutality, it is up to Phil O'Ginny and his hot friend, Misandra, to combat the horrible evil that is The Taint. Can they survive a world brimming with castration and endless head crushing?! \n\nCast:\n\nDirector:\nDrew Bolduc, Dan Nelson\nWriter: Drew Bolduc, Dan Nelson\nStars:\nDrew Bolduc\n\n\nScreenshots\n[img]http://leetleech.org/images/50633389762252366260.jpg[/img]\n[img]http://leetleech.org/images/17429252007196656054.jpg[/img]\n[img]http://leetleech.org/images/64809496881895491003.jpg[/img]\n[img]http://leetleech.org/images/80647542245186931473.jpg[/img]\n[img]http://leetleech.org/images/97958889601053622518.jpg[/img]\n\n\nGeneral\nComplete name                    : The.Taint.2010.DVDRiP.XviD-XtremE.avi\nFormat                           : AVI\nFormat/Info                      : Audio Video Interleave\nFile size                        : 1.00 GiB\nDuration                         : 1h 9mn\nOverall bit rate                 : 2 049 Kbps\nWriting application              : VirtualDubMod 1.5.4.1 (build 2178/release)\nWriting library                  : VirtualDubMod build 2178/release\n\nVideo\nID                               : 0\nFormat                           : MPEG-4 Visual\nFormat profile                   : Advanced Simple@L5\nFormat settings, BVOP            : 1\nFormat settings, QPel            : No\nFormat settings, GMC             : No warppoints\nFormat settings, Matrix          : Custom\nCodec ID                         : XVID\nCodec ID/Hint                    : XviD\nDuration                         : 1h 9mn\nBit rate                         : 1 850 Kbps\nWidth                            : 720 pixels\nHeight                           : 416 pixels\nDisplay aspect ratio             : 16:9\nFrame rate                       : 23.976 fps\nColor space                      : YUV\nChroma subsampling               : 4:2:0\nBit depth                        : 8 bits\nScan type                        : Progressive\nCompression mode                 : Lossy\nBits/(Pixel*Frame)               : 0.258\nStream size                      : 925 MiB (90%)\nWriting library                  : XviD 63\n\nAudio\nID                               : 1\nFormat                           : AC-3\nFormat/Info                      : Audio Coding 3\nMode extension                   : CM (complete main)\nCodec ID                         : 2000\nDuration                         : 1h 9mn\nBit rate mode                    : Constant\nBit rate                         : 192 Kbps\nChannel(s)                       : 2 channels\nChannel positions                : Front: L R\nSampling rate                    : 48.0 KHz\nBit depth                        : 16 bits\nCompression mode                 : Lossy\nStream size                      : 96.0 MiB (9%)\nAlignment                        : Split accross interleaves\nInterleave, duration             : 96 ms (2.30 video frames)\nInterleave, preload duration     : 96 ms\n\n\n\nNote:\nSpecial thanks to our friend.\n\n\nEncoded and created by thefuzz [XtremE]\n\n  \nEnjoy!\n\nRespects to CaptainHomey, Cyanide, CM8, Rx, Pirate666, THC, ELEKTRI4KA and Killerhz","torrent":{"xt":"urn:btih:d92c708f13b4f993428fb5fba411962ae6354615","amp;dn":"The.Taint.2011.DVDRIP.XVID.AC3-XtremE","amp;tr":["udp%3A%2F%2Ftracker.openbittorrent.com%3A80","udp%3A%2F%2Fopen.demonii.com%3A1337","udp%3A%2F%2Ftracker.coppersurfer.tk%3A6969","udp%3A%2F%2Fexodus.desync.com%3A6969"],"infoHash":"d92c708f13b4f993428fb5fba411962ae6354615","infoHashBuffer":{"type":"Buffer","data":[217,44,112,143,19,180,249,147,66,143,181,251,164,17,150,42,230,53,70,21]},"announce":[],"urlList":[]}}